<?xml version="1.0" encoding="UTF-8" standalone="no"?>
<!-- Created with Inkscape (http://www.inkscape.org/) -->

<svg
   xmlns:dc="http://purl.org/dc/elements/1.1/"
   xmlns:cc="http://creativecommons.org/ns#"
   xmlns:rdf="http://www.w3.org/1999/02/22-rdf-syntax-ns#"
   xmlns:svg="http://www.w3.org/2000/svg"
   xmlns="http://www.w3.org/2000/svg"
   xmlns:xlink="http://www.w3.org/1999/xlink"
   xmlns:sodipodi="http://sodipodi.sourceforge.net/DTD/sodipodi-0.dtd"
   xmlns:inkscape="http://www.inkscape.org/namespaces/inkscape"
   width="90.604286mm"
   height="89.802788mm"
   viewBox="0 0 90.604289 89.802794"
   version="1.1"
   id="svg8"
   inkscape:version="0.92.5 (0.92.5+69)"
   sodipodi:docname="Logo_NorthConcepts_Alone_White.svg"
   inkscape:export-filename="D:\NorthCorp\Logo\Logo_NorthWeb_Alone.png"
   inkscape:export-xdpi="96"
   inkscape:export-ydpi="96">
  <defs
     id="defs2">
    <linearGradient
       id="linearGradient7987"
       inkscape:collect="always">
      <stop
         id="stop7983"
         offset="0"
         style="stop-color:#f0c300;stop-opacity:1" />
      <stop
         id="stop7985"
         offset="1"
         style="stop-color:#f0c300;stop-opacity:1" />
    </linearGradient>
    <linearGradient
       inkscape:collect="always"
       id="linearGradient7674">
      <stop
         style="stop-color:#014f57;stop-opacity:1;"
         offset="0"
         id="stop7670" />
      <stop
         style="stop-color:#048b9a;stop-opacity:1"
         offset="1"
         id="stop7672" />
    </linearGradient>
    <linearGradient
       inkscape:collect="always"
       id="linearGradient7548">
      <stop
         style="stop-color:#917400;stop-opacity:1"
         offset="0"
         id="stop7544" />
      <stop
         style="stop-color:#f0c300;stop-opacity:1"
         offset="1"
         id="stop7546" />
    </linearGradient>
    <linearGradient
       inkscape:collect="always"
       id="linearGradient6420">
      <stop
         style="stop-color:#014f57;stop-opacity:1"
         offset="0"
         id="stop6416" />
      <stop
         style="stop-color:#048b9a;stop-opacity:1"
         offset="1"
         id="stop6418" />
    </linearGradient>
    <linearGradient
       inkscape:collect="always"
       xlink:href="#linearGradient6420"
       id="linearGradient6422"
       x1="-22.368874"
       y1="11.023746"
       x2="-22.746851"
       y2="-77.018631"
       gradientUnits="userSpaceOnUse" />
    <linearGradient
       inkscape:collect="always"
       xlink:href="#linearGradient7548"
       id="linearGradient7550"
       x1="481.18616"
       y1="814.67535"
       x2="481.89328"
       y2="690.57812"
       gradientUnits="userSpaceOnUse" />
    <linearGradient
       gradientTransform="matrix(0.26458333,0,0,0.26458333,-164.04465,-217.57561)"
       inkscape:collect="always"
       xlink:href="#linearGradient7548"
       id="linearGradient7550-1"
       x1="481.18616"
       y1="814.67535"
       x2="481.89328"
       y2="690.57812"
       gradientUnits="userSpaceOnUse" />
    <linearGradient
       inkscape:collect="always"
       xlink:href="#linearGradient7674"
       id="linearGradient7676"
       x1="119.97887"
       y1="-5.5321445"
       x2="120.16596"
       y2="-32.701546"
       gradientUnits="userSpaceOnUse" />
    <linearGradient
       inkscape:collect="always"
       xlink:href="#linearGradient7987"
       id="linearGradient7970"
       gradientUnits="userSpaceOnUse"
       x1="481.18616"
       y1="814.67535"
       x2="481.89328"
       y2="690.57812"
       gradientTransform="translate(-278.25292,-549.46093)" />
    <linearGradient
       inkscape:collect="always"
       xlink:href="#linearGradient7674"
       id="linearGradient899"
       gradientUnits="userSpaceOnUse"
       x1="119.97887"
       y1="-5.5321445"
       x2="120.16596"
       y2="-32.701546"
       gradientTransform="matrix(1.4676632,0,0,1.4676632,-3.7993259,6.3289535)" />
    <linearGradient
       inkscape:collect="always"
       xlink:href="#linearGradient7987"
       id="linearGradient903"
       gradientUnits="userSpaceOnUse"
       gradientTransform="translate(-278.25292,-549.46093)"
       x1="481.18616"
       y1="814.67535"
       x2="481.89328"
       y2="690.57812" />
  </defs>
  <sodipodi:namedview
     id="base"
     pagecolor="#ffffff"
     bordercolor="#666666"
     borderopacity="1.0"
     inkscape:pageopacity="0.0"
     inkscape:pageshadow="2"
     inkscape:zoom="2.8284272"
     inkscape:cx="354.18084"
     inkscape:cy="170.51155"
     inkscape:document-units="mm"
     inkscape:current-layer="layer1"
     showgrid="false"
     inkscape:window-width="1853"
     inkscape:window-height="1025"
     inkscape:window-x="1987"
     inkscape:window-y="27"
     inkscape:window-maximized="1"
     inkscape:snap-text-baseline="true"
     showguides="true" />
  <metadata
     id="metadata5">
    <rdf:RDF>
      <cc:Work
         rdf:about="">
        <dc:format>image/svg+xml</dc:format>
        <dc:type
           rdf:resource="http://purl.org/dc/dcmitype/StillImage" />
        <dc:title></dc:title>
      </cc:Work>
    </rdf:RDF>
  </metadata>
  <g
     inkscape:label="Calque 1"
     inkscape:groupmode="layer"
     id="layer1"
     transform="translate(67.987662,76.961085)">
    <flowRoot
       xml:space="preserve"
       id="flowRoot6383"
       style="font-style:normal;font-variant:normal;font-weight:normal;font-stretch:normal;font-size:40px;line-height:1.25;font-family:Equalize;-inkscape-font-specification:Equalize;letter-spacing:0px;word-spacing:0px;fill:#000000;fill-opacity:1;stroke:none"
       transform="scale(0.26458333)"><flowRegion
         id="flowRegion6385"
         style="font-style:normal;font-variant:normal;font-weight:normal;font-stretch:normal;font-family:Equalize;-inkscape-font-specification:Equalize"><rect
           id="rect6387"
           width="239.28572"
           height="40"
           x="-812.14288"
           y="789.66254"
           style="font-style:normal;font-variant:normal;font-weight:normal;font-stretch:normal;font-family:Equalize;-inkscape-font-specification:Equalize" /></flowRegion><flowPara
         id="flowPara6389" /></flowRoot>    <path
       style="fill:#ffffff;fill-opacity:1;stroke-width:0.89999431"
       d="M 171.2207 0 A 171.22086 169.70562 0 0 0 0 169.70508 A 171.22086 169.70562 0 0 0 6.03125 213.46875 L 41.595703 161.5918 A 128.28937 126.77415 0 0 1 169.38672 44.648438 A 128.28937 126.77415 0 0 1 248.73828 71.984375 L 274.47852 34.705078 A 171.22086 169.70562 0 0 0 171.2207 0 z M 322.78711 90.957031 L 285.26953 117.34375 A 128.28937 126.77415 0 0 1 295.6543 149.19141 L 328.04102 101.94727 A 171.22086 169.70562 0 0 0 322.78711 90.957031 z M 337.0957 128.68164 L 296.4375 187.99219 A 128.28937 126.77415 0 0 1 169.38672 298.19531 A 128.28937 126.77415 0 0 1 92.744141 272.89453 L 69.886719 306.23633 A 171.22086 169.70562 0 0 0 171.2207 339.41211 A 171.22086 169.70562 0 0 0 342.44141 169.70508 A 171.22086 169.70562 0 0 0 337.0957 128.68164 z M 44.085938 197.90039 L 15.455078 239.66602 A 171.22086 169.70562 0 0 0 21.583984 252.07812 L 54.910156 228.60547 A 128.28937 126.77415 0 0 1 44.085938 197.90039 z M 75.669922 257.84766 L 69.988281 266.15039 L 75.675781 257.85352 A 128.28937 126.77415 0 0 1 75.669922 257.84766 z "
       id="path6395"
       transform="matrix(0.26458333,0,0,0.26458333,-67.987662,-76.961085)" />
    <g
       aria-label="N"
       transform="matrix(1.0339049,-0.00845539,-0.30498669,0.96970117,0,0)"
       style="font-style:normal;font-weight:normal;font-size:11.15117931px;line-height:1.25;font-family:sans-serif;letter-spacing:0px;word-spacing:0px;fill:#800000;fill-opacity:1;stroke:none;stroke-width:0.27877951"
       id="text6430" />
    <path
       style="fill:#ffffff;fill-opacity:1;stroke:#000000;stroke-width:0.01002199;stroke-miterlimit:4;stroke-dasharray:none;stroke-opacity:0"
       d="m 215.82227,169.44141 73,-0.12696 46.22265,-67.21289 c -1.23469,-3.078096 -3.61926,-7.991298 -5.3291,-11.144529 -2.58709,-5.020956 -5.12807,-8.25623 -8.20801,-12.996093 -3.07944,-4.739447 -6.39608,-9.323297 -9.9375,-13.734376 -3.54148,-4.411456 -7.30334,-8.644607 -11.27148,-12.683593 -0.66234,-0.619871 -1.32968,-1.234474 -2.00195,-1.84375 l -2.53126,3.673828 c -7.11455,10.148412 -14.37767,20.640383 -14.47851,20.8125 z"
       id="path7979"
       transform="matrix(0.26458333,0,0,0.26458333,-69.820884,-76.961085)"
       inkscape:connector-curvature="0"
       sodipodi:nodetypes="ccccccccccc" />
    <path
       style="fill:url(#linearGradient903);fill-opacity:1;stroke:#000000;stroke-width:0.01002199;stroke-miterlimit:4;stroke-dasharray:none;stroke-opacity:0"
       d="m 212.33984,169.50586 -0.0254,-0.0586 -34.24023,0.0586 z"
       id="path7977"
       transform="matrix(0.26458333,0,0,0.26458333,-69.820884,-76.961085)"
       inkscape:connector-curvature="0" />
    <path
       style="fill:url(#linearGradient7970);fill-opacity:1;stroke:#000000;stroke-width:0.01002199;stroke-miterlimit:4;stroke-dasharray:none;stroke-opacity:0"
       d="m 288.68945,169.50586 0.13282,-0.19141 -73,0.12696 -0.0449,0.0645 z"
       id="path7975"
       transform="matrix(0.26458333,0,0,0.26458333,-69.820884,-76.961085)"
       inkscape:connector-curvature="0" />
    <path
       style="fill:#ffffff;fill-opacity:1;stroke:#565656;stroke-width:0.00265738;stroke-miterlimit:4;stroke-dasharray:none;stroke-opacity:0"
       d="m -63.898506,-13.590407 c 0.276699,0.653964 0.568978,1.301322 0.876593,1.941529 0.684194,1.333023 1.435117,2.6312429 2.249957,3.889793 0.814798,1.2585051 1.692488,2.4757697 2.629781,3.6472319 0.937218,1.1714623 1.932866,2.2956629 2.983211,3.36839027 0.366525,0.35036581 0.738984,0.69456185 1.117216,1.03244217 1.359497,-1.96247684 2.169044,-3.18025884 2.75035,-4.10747784 l 18.2408,-26.7030045 0.359123,-0.525032 11.200107,25.8701065 9.741363,-0.079816 30.455147,-44.5188275 -9.6016442,-14.036427 -22.4214348,32.606369 -0.352398,-0.813722 h -9.078482 l 9.431139,0.813719 -11.200369,-25.870107 -9.687028,0.07929 z"
       id="path7502"
       inkscape:connector-curvature="0"
       sodipodi:nodetypes="cccccccccccccccccccc" />
  </g>
</svg>
